<svg xmlns="http://www.w3.org/2000/svg" xmlns:xlink="http://www.w3.org/1999/xlink" width="500" zoomAndPan="magnify" viewBox="0 0 375 374.999991" height="500" preserveAspectRatio="xMidYMid meet" version="1.0"><defs><clipPath id="44962b6d79"><path d="M 10.78125 31 L 320 31 L 320 339.984375 L 10.78125 339.984375 Z M 10.78125 31 " clip-rule="nonzero"/></clipPath></defs><path fill="#d6a067" d="M 78.980469 164.28125 C 79.359375 159.886719 81.195312 156 83.894531 152.457031 C 93.390625 139.976562 114.679688 134.253906 129.578125 143.460938 C 138.347656 148.886719 145.386719 155.867188 151.242188 164.128906 C 156.105469 170.988281 160.5 178.1875 165.230469 185.433594 C 168.53125 180.746094 171.863281 175.929688 175.28125 171.171875 C 204.621094 130.316406 236.835938 91.964844 274.203125 58.152344 C 297.125 37.417969 323.429688 22.007812 351.730469 9.828125 C 356.621094 7.71875 360.699219 8.542969 364.894531 12.78125 C 362.976562 14.574219 361.0625 16.34375 359.167969 18.136719 C 334.453125 41.472656 310.269531 65.351562 288.320312 91.316406 C 275.757812 106.171875 264.109375 121.796875 252.125 137.136719 C 227.992188 168.019531 209.933594 202.765625 189.421875 235.960938 C 181.507812 248.773438 173.664062 261.636719 165.734375 274.445312 C 162.585938 279.535156 158.4375 279.464844 155.277344 274.261719 C 145.019531 257.378906 136.929688 239.4375 129.289062 221.261719 C 122.90625 206.085938 115.734375 191.28125 106.632812 177.488281 C 102.128906 170.671875 96.820312 165.0625 88.097656 164.316406 C 85.152344 164.070312 82.15625 164.28125 78.980469 164.28125 Z M 78.980469 164.28125 " fill-opacity="1" fill-rule="nonzero"/><g clip-path="url(#44962b6d79)"><path fill="#d6a067" d="M 300.90625 111.4375 L 276.867188 135.476562 C 283.8125 150.808594 287.664062 167.824219 287.664062 185.75 C 287.664062 253.25 232.957031 307.960938 165.453125 307.960938 C 97.953125 307.960938 43.242188 253.25 43.242188 185.75 C 43.242188 118.246094 97.953125 63.539062 165.453125 63.539062 C 182.332031 63.539062 198.394531 66.960938 213.007812 73.140625 L 237.222656 48.925781 C 215.785156 37.648438 191.355469 31.273438 165.453125 31.273438 C 80.140625 31.273438 10.980469 100.433594 10.980469 185.75 C 10.980469 271.0625 80.140625 340.21875 165.453125 340.21875 C 250.769531 340.21875 319.929688 271.054688 319.929688 185.742188 C 319.929688 158.8125 313.035156 133.480469 300.90625 111.4375 Z M 300.90625 111.4375 " fill-opacity="1" fill-rule="nonzero"/></g></svg>